<?xml version="1.0" encoding="UTF-8" standalone="no"?>
<svg
   xmlns:dc="http://purl.org/dc/elements/1.1/"
   xmlns:cc="http://creativecommons.org/ns#"
   xmlns:rdf="http://www.w3.org/1999/02/22-rdf-syntax-ns#"
   xmlns:svg="http://www.w3.org/2000/svg"
   xmlns="http://www.w3.org/2000/svg"
   xmlns:sodipodi="http://sodipodi.sourceforge.net/DTD/sodipodi-0.dtd"
   xmlns:inkscape="http://www.inkscape.org/namespaces/inkscape"
   version="1.1"
   x="0px"
   y="0px"
   viewBox="0 0 100 80"
   enable-background="new 0 0 100 100"
   xml:space="preserve"
   id="svg6767"
   inkscape:version="0.91 r"
   sodipodi:docname="random.svg.2016_06_08_00_13_27.0.svg"
   width="100"
   height="80"><metadata
     id="metadata6775"><rdf:RDF><cc:Work
         rdf:about=""><dc:format>image/svg+xml</dc:format><dc:type
           rdf:resource="http://purl.org/dc/dcmitype/StillImage" /><dc:title></dc:title></cc:Work></rdf:RDF></metadata><defs
     id="defs6773" /><sodipodi:namedview
     pagecolor="#ffffff"
     bordercolor="#666666"
     borderopacity="1"
     objecttolerance="10"
     gridtolerance="10"
     guidetolerance="10"
     inkscape:pageopacity="0"
     inkscape:pageshadow="2"
     inkscape:window-width="1366"
     inkscape:window-height="716"
     id="namedview6771"
     showgrid="false"
     inkscape:zoom="7.1625"
     inkscape:cx="50"
     inkscape:cy="40"
     inkscape:window-x="0"
     inkscape:window-y="0"
     inkscape:window-maximized="1"
     inkscape:current-layer="svg6767" /><path
     d="M 100,18.594966 79.167,1.9279661 l 0,8.3329999 -8.333,0 c -9.75,0 -17.333,6.417 -21.667,11.833 l 9.417,11.75 c 2.5,-3 7.167,-6.917 12.25,-6.917 l 8.333,0 0,8.333 20.833,-16.665 z m -60.5,37.583 -9.167,-11.667 c -3,3.5 -7.917,7.417 -13.667,7.417 l -12.5,0 c -4.166,0 -4.166,0 -4.166,4.167 l 0,8.333 c 0,4.167 0,4.167 4.167,4.167 l 12.5,0 c 9.833,0 17.666,-6.417 22.833,-12.417 z m 60.5,4.083 -20.833,-16.666 0,8.333 -8.333,0 c -16.667,0 -29.167,-41.667 -54.167,-41.667 l -12.5,0 c -4.167,0 -4.167,0 -4.167,4.167 l 0,8.333 c 0,4.167 0,4.167 4.167,4.167 l 12.5,0 c 18.75,0 29.167,41.667 54.167,41.667 l 8.333,0 0,8.333 20.833,-16.667 z"
     id="path6769"
     inkscape:connector-curvature="0"
     style="fill:#cc5252;fill-opacity:1" /></svg>